# xmcd
#
# Track frame offsets:
#	150
#	18281
#	37567
#	53278
#	71196
#	93669
#	110127
#	128952
#	145554
#	164732
#	182577
#	193791
#
# Disc length: 2830 seconds
#
# Revision: 3
# Processed by: cddbd v1.4PL0 Copyright (c) Steve Scherf et al.
# Submitted via: EasyCDDAExtractor 5.1.0
#
DISCID=a10b0c0c
DTITLE=Rui Veloso - Avenidas
DYEAR=1998
DGENRE=Blues
TTITLE0=O meu guru
TTITLE1=Todo o tempo do mundo
TTITLE2=Jura
TTITLE3=Inimiga de classe
TTITLE4=Ninguém escreve à Alice
TTITLE5=As regras da sensatez
TTITLE6=Golden days
TTITLE7=Limpa-corações
TTITLE8=Presépio de lata
TTITLE9=Avenidas
TTITLE10=Moby Dick
TTITLE11=Corações Periféricos
EXTD=
EXTT0=
EXTT1=
EXTT2=
EXTT3=
EXTT4=
EXTT5=
EXTT6=
EXTT7=
EXTT8=
EXTT9=
EXTT10=
EXTT11=
PLAYORDER=
